<svg id="Layer_1" data-name="Layer 1" xmlns="http://www.w3.org/2000/svg" viewBox="0 0 229.75 48.67"><defs><style>.cls-1{fill:#61b8ff;}</style></defs><path class="cls-1" d="M35.13,1.6H50.25A26.13,26.13,0,0,1,62.74,4.46a20.59,20.59,0,0,1,8.35,8.12,24.72,24.72,0,0,1,3,12.42,24.48,24.48,0,0,1-3,12.33,20.72,20.72,0,0,1-8.35,8.12,26,26,0,0,1-12.49,2.88H35.13Zm8.49,7.7V40.7h6.63a14.51,14.51,0,0,0,7.83-2.06,13.7,13.7,0,0,0,5.07-5.59,17.68,17.68,0,0,0,1.78-8,17.69,17.69,0,0,0-1.78-8.1,13.62,13.62,0,0,0-5.07-5.56,14.59,14.59,0,0,0-7.83-2Z" transform="translate(-35.13 -0.66)"/><path class="cls-1" d="M72.24,48.33,88.15,1.6H98.81l15.26,46.73h-8.93l-3.23-10.08H84.55L81.24,48.33ZM86.71,31.84H99.89L93.34,11.75Z" transform="translate(-35.13 -0.66)"/><path class="cls-1" d="M115.19,48.33V1.6h17.28q8.39,0,12.87,3.92a13.16,13.16,0,0,1,4.48,10.41,13,13,0,0,1-4.48,10.28q-4.49,3.9-12.87,3.9h-8.79V48.33Zm8.49-23.91h7.92q4.68,0,7.1-2.14a7.11,7.11,0,0,0,2.41-5.56,7.47,7.47,0,0,0-2.2-5.63q-2.19-2.14-6.44-2.15h-8.79Zm16.78,23.91L128.08,26.44h9.07l14.4,21.89Z" transform="translate(-35.13 -0.66)"/><path class="cls-1" d="M154.32,1.6h8.57V48.33h-8.57Zm27,0H193L162.17,33.14V21.54ZM171,20.9l23.33,27.43H183.34L165.05,26.44Z" transform="translate(-35.13 -0.66)"/><path class="cls-1" d="M194.14,48.33V1.6h30V8.94H202.63V21.26h20.23V28.6H202.63V40.91h21.53v7.42Z" transform="translate(-35.13 -0.66)"/><path class="cls-1" d="M246.23,49.34A18.61,18.61,0,0,1,228.44,38a31.24,31.24,0,0,1-2.52-13.14,30.39,30.39,0,0,1,2.61-13.31,18.69,18.69,0,0,1,7.2-8.13A20,20,0,0,1,246.23.66q8.16,0,12.76,4a17.91,17.91,0,0,1,5.88,10.3l-9.07,1.66a13,13,0,0,0-3.56-5.94,8.49,8.49,0,0,0-6-2.27,9.4,9.4,0,0,0-5.66,1.82,12.22,12.22,0,0,0-4,5.49,24.36,24.36,0,0,0-1.49,9.18,26.89,26.89,0,0,0,1.31,8.92,12.51,12.51,0,0,0,3.8,5.76,9.25,9.25,0,0,0,6,2q4.56,0,7.07-2.43a8.27,8.27,0,0,0,2.5-6.21h9.07a16.58,16.58,0,0,1-2.25,8.87,14.48,14.48,0,0,1-6.42,5.6A23.42,23.42,0,0,1,246.23,49.34Z" transform="translate(-35.13 -0.66)"/></svg>